<svg width="185" height="67" viewBox="0 0 185 67" fill="none" xmlns="http://www.w3.org/2000/svg">
<path fill-rule="evenodd" clip-rule="evenodd" d="M39.0109 20.5838C37.2415 19.8584 35.3464 19.4859 33.4331 19.4876C31.5453 19.5438 29.7672 19.524 28.0821 19.4491V0.460129C31.699 -0.144516 35.3911 -0.153308 39.0109 0.434104V20.5838ZM6.44905 13.7808C8.55568 10.905 11.1065 8.3801 14.0066 6.30015L27.1585 19.4022C15.1338 18.7079 8.48417 15.03 6.44905 13.7808ZM48.1062 34.1064C48.1062 34.5582 48.0822 35.0027 48.0425 35.443C47.985 36.6766 47.8252 37.8498 47.6538 39.0282H66.7722C67.3803 35.4244 67.3906 31.7455 66.8025 28.1383H46.9319L61.021 14.0993C58.8945 11.1221 56.2957 8.50969 53.3267 6.36468L39.0443 20.5962C41.7264 21.7026 44.0189 23.5768 45.632 25.9816C47.245 28.3864 48.106 31.2139 48.1062 34.1064ZM53.3632 60.6093C52.1571 59.1135 51.0793 57.5194 50.1413 55.8436C46.4367 48.3234 46.9455 43.9116 47.5525 39.7268L60.9186 53.0443C58.8199 55.9503 56.2694 58.504 53.3632 60.6093ZM41.1745 26.252C37.5869 22.7324 32.3497 21.2791 27.3341 22.3108L0.524458 27.7531C0.524458 27.7531 0.450283 28.0488 0.315514 28.9617C-0.14369 32.2627 -0.101428 35.6138 0.440881 38.9023L26.2246 32.2607L6.21505 52.8913C8.39746 55.9468 11.0764 58.6179 14.1413 60.7946L34.2229 40.0963L28.243 66.568C31.8581 67.1533 35.5451 67.1438 39.1571 66.5399L44.411 39.0282C45.6166 33.6869 44.3181 29.374 41.1745 26.252ZM92.3386 46.9097H94.9504C94.9549 46.9115 94.9587 46.9096 94.9614 46.9082L94.9624 46.9077C94.9652 46.9063 94.9666 46.9064 94.966 46.9149C94.966 50.1889 93.05 52.2792 90.0141 52.2792H89.9911C86.1204 52.2792 84.0916 49.9827 84.0916 46.4246V41.6932C84.0916 38.1288 86.1256 35.8386 89.9911 35.8386H90.0141C93.3896 35.8386 94.965 38.6004 94.965 41.2029C94.965 41.206 94.9647 41.2074 94.9641 41.2078C94.9634 41.2084 94.9622 41.2076 94.9606 41.2066C94.9583 41.2051 94.9549 41.2029 94.9504 41.2029H92.3386C92.3359 41.2029 92.333 41.2035 92.3301 41.2042L92.3242 41.206C92.3205 41.2071 92.317 41.2082 92.3143 41.2084C92.3133 41.2085 92.3124 41.2085 92.3116 41.2083L92.3105 41.2079C92.3099 41.2076 92.3094 41.2071 92.3091 41.2066C92.3086 41.2057 92.3083 41.2045 92.3083 41.2029C91.8904 39.4759 91.2259 38.9127 90.0099 38.9127C89.313 38.9127 88.6447 39.1885 88.152 39.6795C87.6592 40.1705 87.3824 40.8365 87.3824 41.5308V46.2153C87.3824 47.9601 88.2589 49.1999 89.9869 49.1999H90.0099C91.3398 49.1999 91.9395 48.4983 92.3083 46.9097C92.3093 46.9055 92.3114 46.9039 92.3142 46.9037C92.3155 46.9036 92.317 46.9038 92.3185 46.9042C92.3205 46.9047 92.3226 46.9055 92.3248 46.9063L92.3249 46.9064C92.3293 46.908 92.3341 46.9097 92.3386 46.9097ZM94.9504 25.8023H92.3386C92.3358 25.8023 92.3329 25.8017 92.3301 25.8009L92.3249 25.7992C92.3221 25.7983 92.3194 25.7973 92.317 25.797C92.3152 25.7967 92.3135 25.7967 92.3121 25.7972C92.3116 25.7974 92.311 25.7977 92.3105 25.7982C92.3099 25.7987 92.3094 25.7994 92.309 25.8003L92.3083 25.8023C91.9395 27.3909 91.3398 28.0925 90.0099 28.0925H89.9869C88.259 28.0925 87.3824 26.8516 87.3824 25.1069V20.4224C87.3819 20.0779 87.4496 19.7367 87.5817 19.4184C87.7137 19.1001 87.9076 18.8108 88.1521 18.5673C88.3966 18.3238 88.6869 18.1307 89.0064 17.9993C89.326 17.8678 89.6684 17.8005 90.0141 17.8012C91.2301 17.8012 91.8946 18.3633 92.3125 20.0914C92.3125 20.1 92.3198 20.0976 92.3283 20.0947C92.3318 20.0935 92.3354 20.0923 92.3389 20.0917C92.3402 20.0915 92.3415 20.0914 92.3428 20.0914H94.9546C94.9558 20.0914 94.9569 20.0915 94.958 20.0918C94.959 20.092 94.96 20.0924 94.9609 20.0928L94.9632 20.094L94.9648 20.095C94.9678 20.097 94.9692 20.0978 94.9692 20.0914C94.9692 17.4889 93.3938 14.7271 90.0183 14.7271H89.9953C86.1298 14.7271 84.0957 17.0173 84.0957 20.5817V25.313C84.0957 28.8712 86.1246 31.1676 89.9953 31.1676H90.0183C93.0542 31.1676 94.9702 29.0773 94.9702 25.8033C94.9699 25.802 94.9695 25.8009 94.9691 25.8001L94.9683 25.7991L94.9673 25.7985C94.9667 25.7983 94.966 25.7984 94.9653 25.7986L94.9634 25.7995L94.9622 25.8002C94.9591 25.802 94.9552 25.8042 94.9504 25.8023ZM107.135 42.17C107.135 44.2052 106.313 45.6022 104.691 46.3173C104.687 46.3201 104.684 46.3241 104.682 46.3288C104.681 46.3335 104.68 46.3386 104.682 46.3434L107.489 51.9648C107.491 51.9682 107.492 51.9721 107.492 51.9759C107.491 51.9798 107.49 51.9836 107.488 51.9869C107.486 51.9902 107.484 51.993 107.48 51.995C107.479 51.9957 107.478 51.9963 107.476 51.9968C107.475 51.9973 107.473 51.9977 107.472 51.9979L107.469 51.9981H103.973C103.968 51.9982 103.964 51.997 103.96 51.9946C103.956 51.9922 103.953 51.9887 103.952 51.9846L101.72 46.8784H99.9682C99.9652 46.8784 99.9622 46.879 99.9594 46.8802C99.9566 46.8813 99.9541 46.883 99.9519 46.8852C99.9498 46.8873 99.9481 46.8898 99.9469 46.8926C99.9464 46.894 99.9459 46.8955 99.9456 46.8969C99.9453 46.8984 99.9452 46.8999 99.9452 46.9014V51.9752C99.9452 51.9813 99.9428 51.9871 99.9385 51.9914C99.9342 51.9957 99.9283 51.9981 99.9222 51.9981H96.6961C96.69 51.9981 96.6842 51.9957 96.6799 51.9914C96.6756 51.9871 96.6731 51.9813 96.6731 51.9752V39.7507H99.9483V43.9439C99.9483 43.9499 99.9508 43.9558 99.9551 43.9601C99.9582 43.9632 99.9622 43.9653 99.9665 43.9663L99.9692 43.9667L99.9713 43.9668H101.653C103.087 43.9668 103.847 43.3474 103.847 42.0149V41.1196C103.847 39.7851 103.082 39.1417 101.653 39.1417H96.6731V36.1322C96.673 36.1291 96.6735 36.126 96.6746 36.1231C96.6757 36.1202 96.6773 36.1175 96.6795 36.1153C96.6816 36.1131 96.6842 36.1113 96.6871 36.1101C96.6884 36.1095 96.6898 36.109 96.6913 36.1087C96.6929 36.1084 96.6945 36.1082 96.6961 36.1082H101.65C105.246 36.1082 107.135 37.8082 107.135 40.9531V42.17ZM112.435 36.1082H109.209C109.196 36.1082 109.186 36.1185 109.186 36.1311V51.9752C109.186 51.9879 109.196 51.9981 109.209 51.9981H112.435C112.448 51.9981 112.458 51.9879 112.458 51.9752V36.1311C112.458 36.1185 112.448 36.1082 112.435 36.1082ZM119.717 42.2647L121.928 43.1808C124.095 44.0771 124.787 45.6615 124.793 47.8185C124.793 50.6885 122.88 52.2729 119.608 52.2729H119.584C115.028 52.2729 114.166 48.0413 114.166 46.9513H117.091C117.092 46.9511 117.093 46.9587 117.095 46.9732C117.132 47.2048 117.45 49.1998 119.598 49.2644H119.621C120.86 49.2644 121.487 48.7127 121.487 47.68C121.487 46.6474 120.958 46.0956 119.92 45.6365L117.386 44.581C115.451 43.7773 114.461 42.4448 114.461 40.2181C114.461 37.5771 116.303 35.8324 119.714 35.8324H119.737C123.357 35.8324 124.784 38.9106 124.665 40.7844C124.665 40.7959 121.74 40.7844 121.74 40.7844C121.74 39.6029 120.953 38.8627 119.694 38.8627H119.669C118.448 38.8627 117.781 39.3916 117.781 40.2868C117.781 41.2081 118.333 41.6672 119.717 42.2647ZM129.025 51.9752C129.025 51.9813 129.027 51.9871 129.032 51.9914C129.036 51.9957 129.042 51.9981 129.048 51.9981H132.297C132.303 51.9981 132.309 51.9957 132.313 51.9914C132.318 51.9871 132.32 51.9813 132.32 51.9752V39.9183H129.025V51.9752ZM125.523 36.1082H135.824C135.837 36.1082 135.847 36.1185 135.847 36.1311V39.2541C135.847 39.2668 135.837 39.277 135.824 39.277H125.523C125.51 39.277 125.5 39.2668 125.5 39.2541V36.1311C125.5 36.1185 125.51 36.1082 125.523 36.1082ZM142.502 35.8334H142.479C138.561 35.8334 136.487 38.1236 136.487 41.688V46.4194C136.464 49.9588 138.561 52.249 142.479 52.274H142.502C146.397 52.274 148.471 49.9775 148.471 46.4194V41.688C148.475 38.1288 146.4 35.8334 142.502 35.8334ZM145.198 46.2122C145.198 47.9569 144.277 49.1968 142.502 49.1968H142.479C140.682 49.1968 139.763 47.9569 139.763 46.2122V41.8723C139.763 40.1505 140.684 38.9096 142.479 38.9096H142.502C144.278 38.9096 145.198 40.1505 145.198 41.8723V46.2122ZM158.183 43.923C158.186 43.9267 158.19 43.9293 158.195 43.9303C160.139 44.3634 161.078 45.4919 161.081 47.6124C161.081 50.5751 159.191 51.9981 155.665 51.9981H150.454C150.448 51.9981 150.442 51.9957 150.438 51.9914C150.434 51.9871 150.431 51.9813 150.431 51.9752V39.6071H153.701V42.6468C153.701 42.6529 153.704 42.6587 153.708 42.663L153.711 42.6652L153.713 42.6669C153.714 42.6672 153.714 42.6675 153.715 42.6678C153.716 42.6681 153.716 42.6683 153.717 42.6685C153.719 42.6693 153.722 42.6697 153.724 42.6697H155.545C156.862 42.6697 157.53 42.0493 157.53 40.8552C157.53 39.5925 156.862 38.9949 155.432 38.9949H150.432V36.1259C150.432 36.1242 150.432 36.1225 150.433 36.1208C150.433 36.1195 150.433 36.1181 150.434 36.1169C150.435 36.114 150.437 36.1113 150.439 36.1091C150.441 36.1068 150.443 36.1051 150.446 36.1038L150.449 36.1028C150.451 36.1023 150.453 36.102 150.455 36.102H155.432C158.91 36.102 160.686 37.5719 160.686 40.3503C160.686 42.3834 159.885 43.4609 158.195 43.8897C158.192 43.8904 158.189 43.8915 158.187 43.8932C158.185 43.8943 158.184 43.8956 158.183 43.8971C158.18 43.9008 158.178 43.9053 158.178 43.91C158.178 43.9148 158.18 43.9193 158.183 43.923ZM153.729 49.1052H155.665C157.137 49.1052 157.829 48.4858 157.836 47.1085C157.836 45.8687 157.232 45.1567 155.642 45.1567H153.729C153.723 45.1567 153.717 45.1591 153.713 45.1634C153.709 45.1677 153.706 45.1735 153.706 45.1796V49.0823C153.706 49.0883 153.709 49.0942 153.713 49.0985C153.717 49.1028 153.723 49.1052 153.729 49.1052ZM184.973 48.8293H179.331C179.328 48.8294 179.325 48.8289 179.322 48.8279C179.321 48.8273 179.319 48.8265 179.318 48.8256C179.317 48.8248 179.315 48.8239 179.314 48.823C179.312 48.8208 179.31 48.8182 179.309 48.8154C179.308 48.8125 179.307 48.8095 179.307 48.8064V36.1322C179.307 36.1291 179.307 36.126 179.306 36.1231C179.305 36.1202 179.303 36.1175 179.301 36.1153L179.298 36.1128C179.297 36.1117 179.295 36.1108 179.293 36.1101C179.292 36.1094 179.29 36.1089 179.288 36.1086C179.287 36.1083 179.286 36.1082 179.284 36.1082H176.059L176.057 36.1084C176.055 36.1086 176.053 36.109 176.051 36.1098C176.048 36.1109 176.045 36.1128 176.042 36.1152C176.038 36.1197 176.035 36.1258 176.035 36.1322V51.9752C176.035 51.9783 176.036 51.9814 176.037 51.9842C176.038 51.986 176.039 51.9876 176.04 51.9891L176.042 51.9918C176.043 51.9927 176.044 51.9935 176.045 51.9942L176.048 51.9957L176.05 51.9967L176.053 51.9975C176.055 51.998 176.057 51.9982 176.059 51.9981H184.977C184.983 51.9981 184.989 51.9957 184.993 51.9914C184.998 51.9871 185 51.9813 185 51.9752V48.8522C185 48.8488 184.999 48.8454 184.998 48.8423C184.997 48.8412 184.997 48.8401 184.996 48.839C184.995 48.8373 184.993 48.8357 184.992 48.8343C184.989 48.8321 184.986 48.8305 184.983 48.8297L184.979 48.829C184.977 48.8288 184.975 48.8289 184.973 48.8293ZM96.6961 30.8918H96.6976L96.6982 30.8918H99.6234L99.6239 30.8918H99.7373C99.7456 30.8918 99.7437 30.8875 99.741 30.8813C99.7402 30.8794 99.7393 30.8774 99.7386 30.8752C99.7378 30.8729 99.7373 30.8704 99.7373 30.8678V20.5806L102.385 26.3821C102.386 26.3867 102.389 26.3907 102.393 26.3935C102.397 26.3963 102.402 26.3978 102.407 26.3978H104.056C104.059 26.3978 104.062 26.3972 104.065 26.3962C104.067 26.3955 104.068 26.3946 104.07 26.3935C104.074 26.3907 104.077 26.3867 104.078 26.3821L106.723 20.5806V30.8678C106.723 30.8727 106.721 30.8774 106.72 30.8813C106.717 30.8875 106.715 30.8918 106.723 30.8918H109.765C109.768 30.8918 109.771 30.8912 109.774 30.8899C109.776 30.8887 109.779 30.8869 109.781 30.8847C109.783 30.8825 109.785 30.8798 109.786 30.8769C109.787 30.874 109.788 30.8709 109.787 30.8678V15.0248C109.788 15.0216 109.787 15.0185 109.786 15.0155C109.784 15.0126 109.782 15.01 109.78 15.0078C109.778 15.0057 109.775 15.004 109.772 15.003C109.769 15.002 109.766 15.0016 109.762 15.0019H106.644C106.639 15.0018 106.635 15.0031 106.631 15.0055C106.627 15.0079 106.624 15.0113 106.622 15.0154L103.239 23.079H103.23H103.219L99.8365 15.0154C99.8346 15.0113 99.8314 15.0079 99.8276 15.0055C99.8237 15.0031 99.8192 15.0018 99.8146 15.0019H96.6961C96.69 15.0019 96.6842 15.0043 96.6799 15.0086C96.678 15.0105 96.6764 15.0127 96.6753 15.0151C96.6739 15.0181 96.6731 15.0214 96.6731 15.0248V30.8678C96.6731 30.8692 96.6731 30.8706 96.6733 30.872C96.6736 30.8737 96.674 30.8753 96.6746 30.8769C96.6757 30.8798 96.6773 30.8825 96.6795 30.8847C96.6803 30.8855 96.6812 30.8863 96.6821 30.887C96.6836 30.8882 96.6853 30.8892 96.6871 30.8899C96.6888 30.8907 96.6907 30.8912 96.6926 30.8915C96.6938 30.8917 96.6949 30.8918 96.6961 30.8918ZM166.076 36.1082H170.396C170.4 36.1088 170.404 36.1105 170.407 36.113C170.41 36.1156 170.413 36.119 170.415 36.1228L174.532 51.97C174.532 51.9719 174.533 51.9739 174.533 51.976C174.533 51.9774 174.533 51.9789 174.532 51.9803C174.532 51.9837 174.53 51.9869 174.528 51.9897C174.526 51.9924 174.523 51.9946 174.52 51.9961C174.517 51.9976 174.513 51.9983 174.51 51.9981H171.09L168.269 39.3176C168.212 40.1994 165.26 51.9981 165.26 51.9981H161.917C161.915 51.9982 161.912 51.9979 161.91 51.9973C161.909 51.997 161.908 51.9966 161.907 51.9961C161.905 51.9952 161.903 51.994 161.901 51.9926C161.9 51.9917 161.899 51.9907 161.899 51.9897C161.897 51.9869 161.895 51.9837 161.894 51.9803C161.894 51.9769 161.894 51.9733 161.895 51.97L166.054 36.1259C166.055 36.1209 166.058 36.1163 166.062 36.1131C166.066 36.1099 166.071 36.1081 166.076 36.1082Z" fill="white"/>
</svg>
