<?xml version="1.0" encoding="UTF-8"?>
<svg id="Capa_1" data-name="Capa 1" xmlns="http://www.w3.org/2000/svg" viewBox="0 0 404 384">
  <defs>
    <style>
      .cls-1 {
        fill: #21283d;
        stroke-width: 0px;
      }
    </style>
  </defs>
  <g id="F6exno">
    <g>
      <path class="cls-1" d="m186.38,134.94c-10.14-10.74-8.12-24.74.11-32.57,8.78-8.35,22.37-8.35,31.15,0,8.24,7.84,10.24,21.83.27,32.39.28.6.91.55,1.41.69,12.96,3.86,21.22,14.83,21.32,28.35.03,3.68.03,7.35,0,11.03-.03,3.39-1.28,4.62-4.64,4.63-22.62,0-45.24,0-67.86,0-3.37,0-4.68-1.24-4.63-4.62.07-5.54-.59-11.13.54-16.59,2.41-11.65,9.4-19.24,20.76-22.78.47-.15.93-.31,1.58-.52Zm15.64,37.64c9.84,0,19.68-.03,29.51.03,1.72.01,2.32-.54,2.23-2.26-.12-2.42-.02-4.85-.04-7.28-.12-11.89-9.76-21.64-21.63-21.77-6.66-.08-13.32-.07-19.99,0-10.74.11-19.66,7.9-21.41,18.55-.57,3.47-.11,6.96-.33,10.43-.12,1.81.55,2.36,2.33,2.34,9.78-.07,19.55-.03,29.33-.03Zm.06-69.52c-8.76-.01-15.66,6.88-15.65,15.62.02,8.61,6.94,15.6,15.51,15.65,8.66.06,15.71-6.94,15.74-15.62.03-8.75-6.84-15.65-15.61-15.66Z"/>
      <path class="cls-1" d="m144.59,287.89c-11.28,0-22.55,0-33.83,0-3.56,0-4.62-.99-4.54-4.54.12-5.47-.62-11,.4-16.41,2.2-11.73,9.28-19.27,20.55-22.94,1.28-.42,1.9-.48.7-1.89-5.69-6.7-7.43-14.34-4.37-22.65,3.1-8.43,9.39-13.46,18.26-14.65,14.41-1.93,25.82,9.85,25.36,22.9-.19,5.48-2.09,10.2-5.61,14.3-.93,1.08-1.13,1.49.52,2,13.18,4.05,21.06,14.81,21.09,28.62,0,3.43,0,6.85,0,10.28,0,4.14-.87,4.99-5.08,4.99-11.15,0-22.3,0-33.45,0Zm-.03-6.65c9.84,0,19.68-.03,29.52.03,1.6,0,2.25-.44,2.17-2.11-.11-2.67,0-5.35-.05-8.03-.24-11.74-9.83-21.27-21.59-21.39-6.66-.07-13.33-.07-19.99,0-10.16.1-18.99,7.39-21.11,17.36-.82,3.87-.57,7.8-.69,11.72-.06,1.86.49,2.48,2.41,2.46,9.78-.09,19.55-.04,29.33-.04Zm.12-69.72c-8.62-.02-15.65,6.85-15.77,15.42-.12,8.57,6.99,15.8,15.58,15.85,8.69.04,15.84-6.87,15.83-15.56,0-9.42-7.73-15.88-15.64-15.7Z"/>
      <path class="cls-1" d="m259.39,287.89c-11.28,0-22.55,0-33.83,0-3.52,0-4.6-1.03-4.54-4.57.09-5.16-.52-10.36.31-15.48,1.96-12.09,8.95-19.98,20.55-23.75,1.69-.55,1.77-.89.64-2.19-11.09-12.88-4.74-32.61,11.66-36.65,13.2-3.26,26.22,5.95,27.69,19.43.73,6.66-1.3,12.4-5.57,17.43-.83.98-1.24,1.39.44,1.86,12.74,3.59,21.13,14.72,21.18,27.96.01,3.8,0,7.6,0,11.4,0,3.58-.99,4.58-4.52,4.58-11.34,0-22.68,0-34.02,0Zm.08-6.65c9.84,0,19.68-.04,29.52.04,1.83.01,2.4-.59,2.31-2.37-.16-2.92-.03-5.84-.26-8.77-.9-11.41-10.21-20.3-21.63-20.41-6.6-.06-13.2-.06-19.8,0-10.35.09-19.27,7.48-21.29,17.6-.78,3.89-.22,7.83-.44,11.73-.1,1.76.58,2.22,2.26,2.21,9.78-.07,19.55-.03,29.33-.03Zm-.05-69.72c-7.92-.17-15.63,6.32-15.61,15.72.02,8.71,7.16,15.59,15.85,15.54,8.51-.05,15.51-7.1,15.56-15.68.05-8.56-7.1-15.62-15.79-15.58Z"/>
      <path class="cls-1" d="m142.49,147.04c-.64-.05-4.82-3.42-4.88-3.84-.03-.17-.02-.42.07-.53,1.26-1.45,2.52-2.88,3.82-4.29.29-.31.7-.21,1.02.04.39.31.76.64,1.11.98,3.4,3.23,3.33,4.32-.51,7.27-.23.18-.5.3-.63.38Z"/>
      <path class="cls-1" d="m281.8,171.63c.06.68-.19.98-.68,1.12-.36.1-.71.23-1.07.33-4.96,1.42-4.93,1.41-6.18-3.71-.23-.93,0-1.4.87-1.71,6.3-2.23,4.69-2.87,6.78,3.05.12.35.21.71.27.92Z"/>
      <path class="cls-1" d="m123.95,192.43q-4.88-.19-4.64-4.92c.11-2.28.37-2.5,2.55-2.18,4.33.63,4.28.63,4.07,5.12-.07,1.52-.6,2.23-1.98,1.98Z"/>
      <path class="cls-1" d="m285.18,195.24c.03,3.88,0,3.93-4.02,3.37-.91-.13-2.32.44-2.64-.79-.44-1.73-.39-3.57.03-5.35.11-.47.66-.51,1.1-.54,1.43-.07,2.86-.15,4.29-.2.86-.04,1.24.43,1.24,1.26,0,.75,0,1.49,0,2.24Z"/>
      <path class="cls-1" d="m191.37,277.68c-1.72-.26-3.25-.48-4.78-.74-.84-.14-1.12-.67-.92-1.49.17-.72.25-1.47.46-2.18.3-1.03-.05-2.71,1.15-2.89,1.79-.27,3.72.09,5.43.83.86.37.09,6.02-.8,6.4-.22.09-.48.07-.54.08Z"/>
      <path class="cls-1" d="m205.56,275.11q.04,3.32-2.67,3.35c-4.19.05-4.24.03-4.25-2.09-.02-4.53.13-4.83,2.64-4.82,4.46.03,4.22-.57,4.28,3.55Z"/>
      <path class="cls-1" d="m241.12,122.64c-.75,1.53-1.47,3.26-2.63,4.73-.57.72-1.32.11-1.83-.23-1.29-.86-3.76-.8-3.76-2.49,0-1.7,1.3-3.41,2.08-5.1.18-.39.63-.38.99-.21,1.57.74,3.14,1.49,4.7,2.25.35.17.59.46.46,1.06Z"/>
      <path class="cls-1" d="m248.47,134.29c-.63-.01-4.69-2.88-4.81-3.34-.06-.22-.04-.49.02-.71.07-.23.22-.44.34-.66,2.56-4.54,4-4.72,7.77-1,.39.38.73.77.36,1.28-1.03,1.4-2.1,2.78-3.18,4.14-.14.17-.41.23-.5.28Z"/>
      <path class="cls-1" d="m270.54,148.33c-.19.25-.34.51-.55.71-.22.21-.49.37-.75.55-4.3,3.07-4.38,3.04-7.14-1.45-.49-.79-.42-1.26.26-1.9,3.99-3.7,5.01-3.56,7.72,1.18.15.27.28.55.46.9Z"/>
      <path class="cls-1" d="m134.23,148.57c1.28.92,2.85,2.02,4.39,3.16.26.19.21.58.04.87-.84,1.38-1.69,2.76-2.55,4.12-.27.42-.67.53-1.14.32-.17-.08-.34-.15-.51-.23-4.78-2.23-5.09-3.83-1.52-7.79.25-.28.47-.6,1.29-.44Z"/>
      <path class="cls-1" d="m160.79,130.76c-.17-.11-.4-.21-.57-.37-.18-.17-.32-.38-.46-.58-3.18-4.26-2.78-5.51,2.3-7.48.75-.29,1.18-.11,1.53.52.21.38.47.75.61,1.15.46,1.32,2.2,2.53,1.5,3.78-.81,1.45-2.81,1.91-4.3,2.79-.16.09-.35.12-.6.19Z"/>
      <path class="cls-1" d="m151.33,129.39c.6-.11.85.11,1.03.35,1,1.27,1.98,2.56,2.97,3.84.04.05.1.11.09.16-.15,2.3-2.47,2.66-3.65,4.05-.67.79-1.33.28-1.87-.33-.45-.51-.95-1-1.33-1.56-.61-.87-2.31-1.56-1.65-2.62,1.07-1.71,2.96-2.76,4.41-3.88Z"/>
      <path class="cls-1" d="m273.72,154.12c.94.05,3.81,5.47,3.21,5.95-1.56,1.24-3.44,1.95-5.34,2.53-.47.14-.68-.43-.92-.79-2.79-4.33-2.71-4.65,1.82-7.09.43-.23.89-.43,1.23-.59Z"/>
      <path class="cls-1" d="m132.83,163.03c-.73,1.66-1.31,3.39-2.23,4.92-.53.88-1.53.1-2.18-.21-1.34-.65-3.72-.46-3.83-2.06-.13-1.87,1.18-3.72,2.17-5.45.09-.16.47-.3.64-.24,1.74.67,3.46,1.37,5.05,2.36.17.11.23.4.38.67Z"/>
      <path class="cls-1" d="m211.29,272.88c-.04-1.95,1.44-3.01,5.13-2.54,2.67.33,1.55,3.41,2.16,5.22.39,1.17-2.19,2.49-5.55,1.99-2.73-.41-.76-3.41-1.74-4.67Z"/>
      <path class="cls-1" d="m128.42,175.07c-.03.12-.06.24-.09.36-.93,5.03-1.56,5.37-6.53,3.8-.9-.28-1.22-.71-1-1.6.34-1.38.68-2.76.98-4.15.21-.99.7-1.36,1.72-1.03,1.29.42,2.61.78,3.92,1.14.77.21,1.18.64,1,1.48Z"/>
      <path class="cls-1" d="m121.12,205.23c-1.81,0-2.36-.55-2.01-5.2.27-3.59,3.7-1.76,5.33-1.68,2.85.15,1.17,3.12,1.66,4.77.54,1.83-.48,1.53-4.98,2.11Z"/>
      <path class="cls-1" d="m279.55,186.15c-1.98.18-1.77-.52-2.42-4.96-.2-1.39,1.8-2.26,5.27-2.39,1.24-.05,2.06,2.14,2.06,5.47,0,1.45-.96,1.82-4.9,1.88Z"/>
      <path class="cls-1" d="m257.54,142.48c-.9-.38-1.45-1.16-2.1-1.8-2.55-2.49-2.55-2.51-.08-5.16,2.49-2.66,1.96-2.55,4.44-.05,2.85,2.87,3.56,2.07-.21,5.45-.63.57-1.13,1.34-2.05,1.56Z"/>
    </g>
  </g>
</svg>