<?xml version="1.0" encoding="UTF-8"?>
<svg id="Capa_1" data-name="Capa 1" xmlns="http://www.w3.org/2000/svg" viewBox="0 0 404 384">
  <defs>
    <style>
      .cls-1 {
        fill: #21283d;
        stroke: #21283d;
        stroke-miterlimit: 10;
      }
    </style>
  </defs>
  <g id="pEzidu">
    <path class="cls-1" d="m199.53,90.3c28.24.19,52.37,10.41,72.58,29.99,5.65,5.48,10.54,11.66,14.64,18.4,1.02,1.67,1.87,1.94,3.75,1.08,3.93-1.79,6.33-4.27,6.99-8.82.82-5.59,2.47-11.06,3.65-16.6.39-1.86,1.27-3.08,2.95-4.02,12.49-7,24.93-14.07,37.4-21.11,1.26-.71,2.49-1.87,4.07-.78,1.5,1.03,1.14,2.66,1,4.09-.55,5.55-1.1,11.1-1.86,16.63-.29,2.1.25,3.18,2.26,3.97,5.19,2.06,10.29,4.33,15.43,6.53,1.21.52,2.48,1.02,2.57,2.63.1,1.6-1.04,2.27-2.21,2.93-13.31,7.5-26.61,14.99-39.91,22.52-1.4.79-2.7.9-4.23.32-5.06-1.91-10.28-3.45-15.21-5.64-3.62-1.61-6.56-1.28-9.73.88-3.24,2.21-3.31,1.3-1.48,5.1,5.71,11.84,8.97,24.3,10,37.43,3.99,51.23-31.6,99.25-84.48,109-55.69,10.26-109.8-27.41-119.77-83.3-8.89-49.81,19.58-98.69,67.18-115.41,11.14-3.91,22.57-6.01,34.42-5.82Zm98.13,101.72c.06-2.61-.13-6.35-.57-10.09-1.32-11.29-4.51-22.01-9.53-32.21-.84-1.72-1.68-2.03-3.42-1.01-7.7,4.47-15.45,8.85-23.26,13.12-1.83,1-1.93,1.89-1.11,3.67,5.41,11.69,7.2,23.95,5.6,36.75-4.48,35.85-38.87,62.05-74.89,57.01-36.59-5.12-61.8-38.46-56.95-75.08,4.43-33.5,35.03-59.72,70.01-57.16,22.01,1.61,39.08,11.78,51.46,29.92,1.1,1.61,1.85,1.83,3.5.87,7.71-4.45,15.45-8.85,23.26-13.13,2.02-1.11,2.01-2.02.84-3.79-18.83-28.45-45.28-43.9-79.3-45.86-15.46-.89-30.34,2.31-44.53,8.72-41.14,18.6-64.62,63.61-56.08,107.7,10.21,52.69,59.99,87.53,112.78,78.92,47.29-7.71,82.25-49.06,82.19-98.37Zm-36.64.79c.2-8.35-1.82-16.84-5.38-25.03-.78-1.79-1.52-2.12-3.3-1.08-7.24,4.21-14.54,8.33-21.91,12.32-1.84,1-1.94,1.94-1.26,3.71,2.16,5.7,2.4,11.62,1.06,17.51-4.1,17.97-22.51,28.71-39.86,23.39-17.7-5.43-27.17-24.36-20.48-41.6,4.52-11.63,13.35-18.47,25.68-20.08,11.39-1.49,20.97,2.56,28.29,11.43,1.71,2.08,2.87,2.5,5.3,1.04,6.8-4.1,13.75-7.95,20.73-11.73,2.05-1.11,2.07-2.02.82-3.76-14.95-20.63-35.12-30-60.38-26.62-33.47,4.48-56.73,36.04-52.11,69.7,4.57,33.27,35.88,56.99,69.23,52.44,30.95-4.22,53.51-29.93,53.56-61.63Zm-62.14-26.24c-.87.04-2.28,0-3.66.2-14.07,2.01-23.65,14.67-22.49,29.67.99,12.83,13.37,23.89,26.65,23.81,17.73-.1,30.5-16.92,25.91-34.12-.93-3.49-1.09-3.54-4.3-1.71-4.63,2.63-9.28,5.23-13.92,7.83-1.36.76-2.74.92-3.68-.58-.97-1.56-.02-2.62,1.25-3.46.51-.34,1.06-.61,1.59-.91,4.48-2.53,8.94-5.11,13.47-7.57,1.82-.99,1.87-1.88.56-3.38-5.53-6.32-12.33-9.87-21.37-9.78Zm158.42-43.8c-5.08-2.17-9.64-4.09-14.18-6.06-3.66-1.59-3.95-2.23-3.46-6.22.52-4.24.97-8.48,1.4-12.73.07-.74.45-1.73-.28-2.21-.76-.51-1.45.32-2.1.69-10.26,5.78-20.49,11.61-30.78,17.35-1.43.8-2.21,1.8-2.55,3.36-1.26,5.79-2.5,11.59-3.93,17.34-.44,1.77.02,2.53,1.66,3.11,4.85,1.71,9.69,3.46,14.49,5.33,1.98.77,3.62.54,5.43-.51,7.79-4.49,15.64-8.86,23.46-13.28,3.46-1.96,6.91-3.94,10.83-6.18Z"/>
  </g>
</svg>